<?xml version="1.0" encoding="utf-8"?>
<!-- Generator: Adobe Illustrator 25.4.1, SVG Export Plug-In . SVG Version: 6.00 Build 0)  -->
<svg version="1.1" id="Layer_1" xmlns="http://www.w3.org/2000/svg" xmlns:xlink="http://www.w3.org/1999/xlink" x="0px" y="0px"
	 viewBox="0 0 1404 479" style="enable-background:new 0 0 1404 479;" xml:space="preserve">
<style type="text/css">
	.st0{fill-rule:evenodd;clip-rule:evenodd;fill:#0F0E17;}
	.st1{fill:none;stroke:#1C314A;stroke-linecap:round;stroke-linejoin:round;}
	.st2{fill-rule:evenodd;clip-rule:evenodd;fill:#13263C;}
</style>
<path class="st0" d="M1137.3,154.6l-151,0.6c-12.2,0-17.6-15.8-7.6-22.8c0.1-0.1,0.3-0.2,0.4-0.3c14.2-9.9,32.9-9,32.9-9
	s2.5-53,52.8-53.2c24.9-0.1,45.1,42.3,45.1,42.3s33.8-0.1,39.5,26.6C1151.2,146.8,1145.6,154.6,1137.3,154.6z"/>
<path class="st1" d="M1137.3,154.6l-151,0.6c-12.2,0-17.6-15.8-7.6-22.8c0.1-0.1,0.3-0.2,0.4-0.3c14.2-9.9,32.9-9,32.9-9
	s2.5-53,52.8-53.2c24.9-0.1,45.1,42.3,45.1,42.3s33.8-0.1,39.5,26.6C1151.2,146.8,1145.6,154.6,1137.3,154.6z"/>
<path class="st1" d="M146.1,396.5L27.1,397c-9.6,0-13.8-12.4-6-17.9c0.1-0.1,0.2-0.2,0.3-0.2c11.2-7.7,25.9-7.1,25.9-7.1
	S49.3,330.2,89,330c19.6-0.1,35.6,33.2,35.6,33.2s26.7-0.1,31.2,20.9C157.1,390.4,152.7,396.5,146.1,396.5z"/>
<path class="st0" d="M103.8,238.4l202.9,0.8c16.4,0.1,23.6-21.2,10.2-30.7c-0.2-0.1-0.4-0.3-0.6-0.4c-19.1-13.2-44.2-12.1-44.2-12.1
	s-3.3-71.5-70.9-71.5c-47.8,0-60.7,56.9-60.7,56.9s-45.5-0.2-53.1,35.7C85.1,228,92.7,238.4,103.8,238.4z"/>
<path class="st1" d="M103.8,238.4l202.9,0.8c16.4,0.1,23.6-21.2,10.2-30.7c-0.2-0.1-0.4-0.3-0.6-0.4c-19.1-13.2-44.2-12.1-44.2-12.1
	s-3.3-71.5-70.9-71.5c-47.8,0-60.7,56.9-60.7,56.9s-45.5-0.2-53.1,35.7C85.1,228,92.7,238.4,103.8,238.4z"/>
<path class="st0" d="M703.5,78.8l79.9-0.3c7.1,0,10.2-9.3,4.3-13.4c-0.1-0.1-0.2-0.1-0.2-0.2c-8.3-5.7-19.3-5.1-19.3-5.1
	s-1.7-31-31.1-30.8c-26.6,0.1-37.1,26.2-40.8,40.6C695.1,74.3,698.7,78.8,703.5,78.8z"/>
<path class="st1" d="M703.5,78.8l79.9-0.3c7.1,0,10.2-9.3,4.3-13.4c-0.1-0.1-0.2-0.1-0.2-0.2c-8.3-5.7-19.3-5.1-19.3-5.1
	s-1.7-31-31.1-30.8c-26.6,0.1-37.1,26.2-40.8,40.6C695.1,74.3,698.7,78.8,703.5,78.8z"/>
<path class="st0" d="M405.4,343.8l273.7,1c25.7,0.1,24.6-21.1,16.2-28.5c-8.6-7.6-25.6-4.6-25.6-4.6s-5-14.2-21.6-21.2
	c-14.7-6.2-30.2-3.3-30.2-3.3s0-9.8-9.4-17.9c-9.4-8.1-22-7.4-22-7.4s-8.4-53.9-66.2-54.1c-57.8-0.2-64.6,50.5-64.6,50.5
	s-13,0-22.4,8.6c-9.5,8.6-10.7,18.4-10.7,18.4s-31.5-4.4-41,22.8C376.1,324.3,387.4,343.8,405.4,343.8z"/>
<path class="st1" d="M405.4,343.8l273.7,1c25.7,0.1,24.6-21.1,16.2-28.5c-8.6-7.6-25.6-4.6-25.6-4.6s-5-14.2-21.6-21.2
	c-14.7-6.2-30.2-3.3-30.2-3.3s0-9.8-9.4-17.9c-9.4-8.1-22-7.4-22-7.4s-8.4-53.9-66.2-54.1c-57.8-0.2-64.6,50.5-64.6,50.5
	s-13,0-22.4,8.6c-9.5,8.6-10.7,18.4-10.7,18.4s-31.5-4.4-41,22.8C376.1,324.3,387.4,343.8,405.4,343.8z"/>
<path class="st0" d="M1239.7,303.3l84.9,0.3c6.9,0,9.9-8.9,4.3-12.8c-0.1-0.1-0.2-0.1-0.2-0.2c-8-5.5-18.5-5.1-18.5-5.1
	s-1.4-29.8-29.7-29.9c-14-0.1-25.4,23.8-25.4,23.8s-19-0.1-22.2,14.9C1231.9,298.9,1235.1,303.3,1239.7,303.3z"/>
<path class="st1" d="M1239.7,303.3l84.9,0.3c6.9,0,9.9-8.9,4.3-12.8c-0.1-0.1-0.2-0.1-0.2-0.2c-8-5.5-18.5-5.1-18.5-5.1
	s-1.4-29.8-29.7-29.9c-14-0.1-25.4,23.8-25.4,23.8s-19-0.1-22.2,14.9C1231.9,298.9,1235.1,303.3,1239.7,303.3z"/>
<path class="st0" d="M8,48.6l84.8,0.3c6.9,0,9.9-8.9,4.3-12.8C97,36.1,97,36,96.9,36c-8-5.5-18.5-5.1-18.5-5.1S77,1.1,48.7,1
	c-14-0.1-25.4,23.8-25.4,23.8s-19-0.1-22.2,14.9C0.2,44.3,3.4,48.6,8,48.6z"/>
<path class="st1" d="M8,48.6l84.8,0.3c6.9,0,9.9-8.9,4.3-12.8C97,36.1,97,36,96.9,36c-8-5.5-18.5-5.1-18.5-5.1S77,1.1,48.7,1
	c-14-0.1-25.4,23.8-25.4,23.8s-19-0.1-22.2,14.9C0.2,44.3,3.4,48.6,8,48.6z"/>
<path class="st0" d="M665.7,478h-25.6c-10,0-18.1-8.2-18.1-18.3v-26.9l-4.4-14.6c27.1,0.1,65.2,0.6,70.6,0l-4.4,14.6v26.9
	C683.8,469.8,675.7,478,665.7,478z"/>
<path class="st1" d="M665.7,478h-25.6c-10,0-18.1-8.2-18.1-18.3v-26.9l-4.4-14.6c27.1,0.1,65.2,0.6,70.6,0l-4.4,14.6v26.9
	C683.8,469.8,675.7,478,665.7,478z"/>
<path class="st1" d="M652.9,380v37"/>
<path class="st2" d="M614.8,381.4l8.3,38.5L614.8,381.4z"/>
<path class="st1" d="M614.8,381.4l8.3,38.5"/>
<path class="st2" d="M693.1,381.4l-9.3,38.5L693.1,381.4z"/>
<path class="st1" d="M693.1,381.4l-9.3,38.5"/>
<path class="st2" d="M673.8,381.1l-6.7,38L673.8,381.1z"/>
<path class="st1" d="M673.8,381.1l-6.7,38"/>
<path class="st2" d="M632.4,381.1l6.7,38L632.4,381.1z"/>
<path class="st1" d="M632.4,381.1l6.7,38"/>
<path class="st1" d="M621.7,433.2h62"/>
<path class="st0" d="M806.8,188.3c0-85.3-68.3-154.4-152.5-154.4c-84.2,0-152.5,69.1-152.5,154.4c0,69.4,107.6,193.2,107.6,193.2
	h89.7C699.2,381.5,806.8,257.7,806.8,188.3z"/>
<path class="st1" d="M806.8,188.3c0-85.3-68.3-154.4-152.5-154.4c-84.2,0-152.5,69.1-152.5,154.4c0,69.4,107.6,193.2,107.6,193.2
	h89.7C699.2,381.5,806.8,257.7,806.8,188.3z"/>
<path class="st0" d="M751.5,188.3c0-85.3-43.5-154.4-97.2-154.4c-53.7,0-97.2,69.1-97.2,154.4c0,69.4,68.6,193.2,68.6,193.2h57.2
	C682.9,381.5,751.5,257.7,751.5,188.3z"/>
<path class="st1" d="M751.5,188.3c0-85.3-43.5-154.4-97.2-154.4c-53.7,0-97.2,69.1-97.2,154.4c0,69.4,68.6,193.2,68.6,193.2h57.2
	C682.9,381.5,751.5,257.7,751.5,188.3z"/>
<path class="st0" d="M687.9,188.3c0-85.3-15-154.4-33.5-154.4c-18.5,0-33.5,69.1-33.5,154.4c0,69.4,23.7,193.2,23.7,193.2h19.7
	C664.2,381.5,687.9,257.7,687.9,188.3z"/>
<path class="st1" d="M687.9,188.3c0-85.3-15-154.4-33.5-154.4c-18.5,0-33.5,69.1-33.5,154.4c0,69.4,23.7,193.2,23.7,193.2h19.7
	C664.2,381.5,687.9,257.7,687.9,188.3z"/>
<path class="st0" d="M708.8,302.9c-42.9-0.2-22.5-68,31.7-51.6C743.9,156.9,897.9,88.5,961,216c18-14.2,58.3,12.9,49.3,36.3
	c20,1.8,35.7,4.1,47.9,7.3c28.2,7.2,22.5,44.4-6.6,44L708.8,302.9z"/>
<path class="st1" d="M708.8,302.9c-42.9-0.2-22.5-68,31.7-51.6C743.9,156.9,897.9,88.5,961,216c18-14.2,58.3,12.9,49.3,36.3
	c20,1.8,35.7,4.1,47.9,7.3c28.2,7.2,22.5,44.4-6.6,44L708.8,302.9z"/>
<path class="st1" d="M867.3,321.2h107.5"/>
<path class="st2" d="M834.3,321.2h-21c0.1-1.4,0.3-2.8,0.4-4.1"/>
<path class="st1" d="M834.3,321.2h-21c0.1-1.4,0.3-2.8,0.4-4.1"/>
<path class="st1" d="M485.6,364.5h31"/>
<path class="st1" d="M231.8,261.3h24.8"/>
<path class="st1" d="M39,413h24.8"/>
<path class="st0" d="M1267.6,96.5l127.6,0.5c10.3,0,14.8-13.3,6.4-19.3c-0.1-0.1-0.2-0.2-0.4-0.3c-12-8.3-27.8-7.6-27.8-7.6
	s-2.1-44.9-44.6-44.9c-30.1,0-38.1,35.7-38.1,35.7s-28.6-0.1-33.4,22.4C1255.8,90,1260.6,96.5,1267.6,96.5z"/>
<path class="st1" d="M1267.6,96.5l127.6,0.5c10.3,0,14.8-13.3,6.4-19.3c-0.1-0.1-0.2-0.2-0.4-0.3c-12-8.3-27.8-7.6-27.8-7.6
	s-2.1-44.9-44.6-44.9c-30.1,0-38.1,35.7-38.1,35.7s-28.6-0.1-33.4,22.4C1255.8,90,1260.6,96.5,1267.6,96.5z"/>
<path class="st1" d="M1348,111.3h15.6"/>
<path class="st1" d="M398.9,232.5h31.2"/>
<path class="st1" d="M332.9,315h28.9"/>
<path class="st1" d="M306.1,315h-14.6"/>
<path class="st1" d="M1081.6,174.2h45.6"/>
<path class="st1" d="M824,112.8h22.8"/>
<path class="st1" d="M927.2,341.8h18.7"/>
</svg>
